<svg xmlns="http://www.w3.org/2000/svg" xmlns:xlink="http://www.w3.org/1999/xlink" version="1.1" id="Calque_1" x="0px" y="0px" width="100px" height="100px" viewBox="0 0 100 100" enable-background="new 0 0 100 100" xml:space="preserve">
<path d="M77.018,7.021c-0.586,7.217-2.695,12.479-6.352,15.788c-6.295-4.118-13.148-6.114-20.589-6.002  c-7.202-0.112-13.944,1.773-20.24,5.653c-4.452-3.42-6.561-8.571-6.337-15.438c-10.413,11.111-12.354,20.422-5.835,27.973  c-3.657,6.394-5.485,13.038-5.485,19.892c0,10.287,3.713,19.276,11.152,26.926c7.427,7.44,16.346,11.153,26.745,11.153  c10.302,0,19.152-3.713,26.591-11.153c7.439-7.649,11.152-16.639,11.152-26.926c0-7.203-1.717-13.666-5.15-19.389  C88.965,27.261,87.066,17.783,77.018,7.021z M64.496,69.123c-4.02,4.007-8.822,6.003-14.406,6.003  c-5.499,0-10.357-1.996-14.587-6.003c-4.006-4.006-6.002-8.863-6.002-14.586c0-5.709,1.996-10.567,6.002-14.573  c4.118-4.118,8.976-6.114,14.587-6.002c5.583-0.112,10.386,1.884,14.406,6.002c3.992,4.006,6.002,8.864,6.002,14.573  C70.498,60.26,68.488,65.117,64.496,69.123z"/>
</svg>